<?xml version="1.0" encoding="UTF-8" standalone="no"?>
<!-- Created with Inkscape (http://www.inkscape.org/) -->

<svg
   xmlns:dc="http://purl.org/dc/elements/1.1/"
   xmlns:cc="http://creativecommons.org/ns#"
   xmlns:rdf="http://www.w3.org/1999/02/22-rdf-syntax-ns#"
   xmlns:svg="http://www.w3.org/2000/svg"
   xmlns="http://www.w3.org/2000/svg"
   xmlns:sodipodi="http://sodipodi.sourceforge.net/DTD/sodipodi-0.dtd"
   xmlns:inkscape="http://www.inkscape.org/namespaces/inkscape"
   width="128"
   height="139.15067"
   id="svg3000"
   version="1.1"
   inkscape:version="0.91 r13725"
   sodipodi:docname="flood-icon.svg">
  <defs
     id="defs3002" />
  <sodipodi:namedview
     id="base"
     pagecolor="#ffffff"
     bordercolor="#666666"
     borderopacity="1.0"
     inkscape:pageopacity="0.0"
     inkscape:pageshadow="2"
     inkscape:zoom="2.3193102"
     inkscape:cx="36.180507"
     inkscape:cy="35.124524"
     inkscape:document-units="px"
     inkscape:current-layer="layer1"
     showgrid="false"
     showborder="true"
     inkscape:showpageshadow="false"
     inkscape:window-width="1916"
     inkscape:window-height="1035"
     inkscape:window-x="4"
     inkscape:window-y="1"
     inkscape:window-maximized="1"
     fit-margin-top="0"
     fit-margin-left="0"
     fit-margin-right="0"
     fit-margin-bottom="0" />
  <metadata
     id="metadata3005">
    <rdf:RDF>
      <cc:Work
         rdf:about="">
        <dc:format>image/svg+xml</dc:format>
        <dc:type
           rdf:resource="http://purl.org/dc/dcmitype/StillImage" />
        <dc:title></dc:title>
      </cc:Work>
    </rdf:RDF>
  </metadata>
  <g
     inkscape:label="Camada 1"
     inkscape:groupmode="layer"
     id="layer1"
     transform="translate(0,-927.86217)">
    <path
       inkscape:connector-curvature="0"
       style="fill:#000000;fill-opacity:0.99914557;stroke:none"
       d="M 63.75,927.86217 0,984.26842 l 6.71875,7.5625 57.3125,-50.6875 57.28125,50.6875 6.6875,-7.5625 -63.75,-56.40625 -0.21875,0.28125 z m -44.6875,8.125 0,24.03125 16.03125,-14.46875 0.125,-9.5625 z m 44.96875,13.625 -44.96875,39.78125 0,41.60658 c 0,1.4695 1.18827,2.6563 2.65625,2.6563 l 28.09375,0 0,-9.7004 c 0,-1.4667 1.18551,-2.6562 2.65625,-2.6562 l 23.0625,0 c 1.47074,0 2.65625,1.1895 2.65625,2.6562 l -0.375455,17.0218 27.718295,-0.3755 c 1.46785,-0.02 2.63354,-1.187 2.65625,-2.6563 l 0.75091,-48.58373 z"
       id="rect2986"
       sodipodi:nodetypes="ccccccccccccccccsscsssscsscc" />
    <g
       transform="matrix(1.3973738,0,0,0.71562814,71.711885,50.310956)"
       style="font-style:normal;font-weight:normal;font-size:182.37327576px;line-height:125%;font-family:sans-serif;letter-spacing:0px;word-spacing:0px;fill:#414cde;fill-opacity:1;stroke:none;stroke-width:1px;stroke-linecap:butt;stroke-linejoin:miter;stroke-opacity:1"
       id="text9593">
      <path
         d="m -4.7558926,1372.7754 c -4.9240785,-4.0122 -11.6718894,-9.1186 -18.7844474,-9.1186 -10.942397,0 -20.243434,6.383 -24.438019,25.1675 l 10.760023,3.6474 c 2.735599,-9.8481 6.018318,-16.0488 12.21901,-16.0488 5.106451,0 8.571544,2.7356 14.225115,7.6597 0.54712,0.5471 0.9118666,1.2766 1.6413597,1.8237 6.565438,5.1064 12.7661293,8.3892 19.8786873,8.3892 8.93629,0 20.60818,-8.0245 23.343779,-25.5323 l -10.760023,-3.1003 c -1.458986,9.4834 -5.653572,15.8664 -11.854263,15.8664 -6.0183182,0 -10.2129035,-3.6474 -16.2312216,-8.7539 z"
         style="font-style:normal;font-variant:normal;font-weight:normal;font-stretch:normal;font-family:'.Apple SD Gothic NeoI';-inkscape-font-specification:'.Apple SD Gothic NeoI';fill:#414cde;fill-opacity:1"
         id="path9598"
         inkscape:connector-curvature="0" />
    </g>
    <g
       id="g9600"
       style="font-style:normal;font-weight:normal;font-size:182.37327576px;line-height:125%;font-family:sans-serif;letter-spacing:0px;word-spacing:0px;fill:#414cde;fill-opacity:1;stroke:none;stroke-width:1px;stroke-linecap:butt;stroke-linejoin:miter;stroke-opacity:1"
       transform="matrix(1.3973738,0,0,0.64822966,74.888752,163.18913)">
      <path
         inkscape:connector-curvature="0"
         id="path9602"
         style="font-style:normal;font-variant:normal;font-weight:normal;font-stretch:normal;font-family:'.Apple SD Gothic NeoI';-inkscape-font-specification:'.Apple SD Gothic NeoI';fill:#414cde;fill-opacity:1"
         d="m -4.7558926,1372.7754 c -4.9240785,-4.0122 -11.6718894,-9.1186 -18.7844474,-9.1186 -10.942397,0 -20.243434,6.383 -24.438019,25.1675 l 10.760023,3.6474 c 2.735599,-9.8481 6.018318,-16.0488 12.21901,-16.0488 5.106451,0 8.571544,2.7356 14.225115,7.6597 0.54712,0.5471 0.9118666,1.2766 1.6413597,1.8237 6.565438,5.1064 12.7661293,8.3892 19.8786873,8.3892 8.93629,0 20.60818,-8.0245 23.343779,-25.5323 l -10.760023,-3.1003 c -1.458986,9.4834 -5.653572,15.8664 -11.854263,15.8664 -6.0183182,0 -10.2129035,-3.6474 -16.2312216,-8.7539 z" />
    </g>
  </g>
</svg>
